# xmcd
#
# Track frame offsets:
#	150
#	10350
#	25092
#	37096
#	50827
#	66312
#	79037
#	90352
#	108195
#	124394
#	137586
#	152341
#	164218
#	174690
#	188546
#	200880
#	215087
#	227376
#	242095
#	257776
#	269400
#	285684
#	297740
#	308645
#	320884
#
# Disc length: 4428 seconds
#
# Revision: 2
# Processed by: cddbd v1.5.2PL0 Copyright (c) Steve Scherf et al.
# Submitted via: audiograbber 1.83.01
#
DISCID=7c114a19
DTITLE=Frank Sinatra - The Great American Songbook Cd2
DYEAR=2007
DGENRE=Swing
TTITLE0=Taking A Chance On Love
TTITLE1=Just One Of Those Things
TTITLE2=A Foggy Day (In London Town)
TTITLE3=In The Wee Small Hours Of The Morning
TTITLE4=Rain (Falling From The Skies)
TTITLE5=You Brought A New Kind Of Love To Me
TTITLE6=Too Marvellous For Words
TTITLE7=Old Devil Moon
TTITLE8=Mood Indigo
TTITLE9=Swingin' Down The Lane
TTITLE10=My One And Only Love
TTITLE11=It Happened In Monterey
TTITLE12=You're Getting To Be A Habit With Me
TTITLE13=Learnin' The Blues
TTITLE14=April In Paris
TTITLE15=Nevertheless (I'm In Love With You)
TTITLE16=I Could Write A Book
TTITLE17=Deep Night
TTITLE18=The Birth Of The Blues
TTITLE19=You Do Something To Me
TTITLE20=We Kiss In A Shadow
TTITLE21=Lover
TTITLE22=(Should I) Reveal
TTITLE23=I Guess I'll Have To Dream The Rest
TTITLE24=When You're Smiling (The Whole World Smiles With You)
EXTD=
EXTT0=
EXTT1=
EXTT2=
EXTT3=
EXTT4=
EXTT5=
EXTT6=
EXTT7=
EXTT8=
EXTT9=
EXTT10=
EXTT11=
EXTT12=
EXTT13=
EXTT14=
EXTT15=
EXTT16=
EXTT17=
EXTT18=
EXTT19=
EXTT20=
EXTT21=
EXTT22=
EXTT23=
EXTT24=
PLAYORDER=
